<svg width="32" height="32" viewBox="0 0 32 32" fill="none" xmlns="http://www.w3.org/2000/svg">
  <!-- Background Circle -->
  <circle cx="16" cy="16" r="15" fill="#FF6B9D" stroke="#000" stroke-width="2"/>
  
  <!-- Spaghetti Icon -->
  <path d="M8 10C8 10 10 12 12 12C14 12 16 10 18 10C20 10 22 12 24 12" stroke="#FFC107" stroke-width="2" stroke-linecap="round"/>
  <path d="M8 14C8 14 10 16 12 16C14 16 16 14 18 14C20 14 22 16 24 16" stroke="#FFC107" stroke-width="2" stroke-linecap="round"/>
  <path d="M8 18C8 18 10 20 12 20C14 20 16 18 18 18C20 18 22 20 24 20" stroke="#FFC107" stroke-width="2" stroke-linecap="round"/>
  
  <!-- Fork (simplified) -->
  <rect x="14" y="20" width="4" height="8" fill="#4ECDC4" stroke="#000" stroke-width="1"/>
  <rect x="13" y="18" width="1" height="3" fill="#4ECDC4"/>
  <rect x="15" y="18" width="1" height="3" fill="#4ECDC4"/>
  <rect x="17" y="18" width="1" height="3" fill="#4ECDC4"/>
  <rect x="19" y="18" width="1" height="3" fill="#4ECDC4"/>
  
  <!-- Small binary digits for "bytes" -->
  <text x="6" y="8" font-family="monospace" font-size="4" fill="#9B59B6">01</text>
  <text x="22" y="26" font-family="monospace" font-size="4" fill="#9B59B6">10</text>
</svg>